<svg width="210" height="313" viewBox="0 0 210 313" fill="none" xmlns="http://www.w3.org/2000/svg">
<g filter="url(#filter0_di_692_15241)">
<ellipse cx="62.5" cy="245.005" rx="14.5" ry="15.8832" fill="#0519CA"/>
</g>
<path d="M175.5 60.4308C175.5 77.1377 163.146 90.6019 148 90.6019C132.854 90.6019 120.5 77.1377 120.5 60.4308C120.5 43.724 132.854 30.2598 148 30.2598C163.146 30.2598 175.5 43.724 175.5 60.4308Z" fill="#0703DA" fill-opacity="0.33" stroke="white"/>
<g filter="url(#filter1_d_692_15241)">
<ellipse cx="147.5" cy="59.8832" rx="14.5" ry="15.8832" fill="#0519CA"/>
</g>
<path d="M82.5 245.005C82.5 257.174 73.5038 266.96 62.5 266.96C51.4962 266.96 42.5 257.174 42.5 245.005C42.5 232.835 51.4962 223.049 62.5 223.049C73.5038 223.049 82.5 232.835 82.5 245.005Z" stroke="#4125EC"/>
<defs>
<filter id="filter0_di_692_15241" x="0" y="185.122" width="125" height="127.767" filterUnits="userSpaceOnUse" color-interpolation-filters="sRGB">
<feFlood flood-opacity="0" result="BackgroundImageFix"/>
<feColorMatrix in="SourceAlpha" type="matrix" values="0 0 0 0 0 0 0 0 0 0 0 0 0 0 0 0 0 0 127 0" result="hardAlpha"/>
<feOffset dy="4"/>
<feGaussianBlur stdDeviation="24"/>
<feComposite in2="hardAlpha" operator="out"/>
<feColorMatrix type="matrix" values="0 0 0 0 0.0211112 0 0 0 0 0.791667 0 0 0 0 0.680044 0 0 0 1 0"/>
<feBlend mode="normal" in2="BackgroundImageFix" result="effect1_dropShadow_692_15241"/>
<feBlend mode="normal" in="SourceGraphic" in2="effect1_dropShadow_692_15241" result="shape"/>
<feColorMatrix in="SourceAlpha" type="matrix" values="0 0 0 0 0 0 0 0 0 0 0 0 0 0 0 0 0 0 127 0" result="hardAlpha"/>
<feOffset dy="4"/>
<feGaussianBlur stdDeviation="2"/>
<feComposite in2="hardAlpha" operator="arithmetic" k2="-1" k3="1"/>
<feColorMatrix type="matrix" values="0 0 0 0 0 0 0 0 0 0.508333 0 0 0 0 0.434696 0 0 0 1 0"/>
<feBlend mode="normal" in2="shape" result="effect2_innerShadow_692_15241"/>
</filter>
<filter id="filter1_d_692_15241" x="85" y="0" width="125" height="127.767" filterUnits="userSpaceOnUse" color-interpolation-filters="sRGB">
<feFlood flood-opacity="0" result="BackgroundImageFix"/>
<feColorMatrix in="SourceAlpha" type="matrix" values="0 0 0 0 0 0 0 0 0 0 0 0 0 0 0 0 0 0 127 0" result="hardAlpha"/>
<feOffset dy="4"/>
<feGaussianBlur stdDeviation="24"/>
<feComposite in2="hardAlpha" operator="out"/>
<feColorMatrix type="matrix" values="0 0 0 0 0.0211112 0 0 0 0 0.791667 0 0 0 0 0.680044 0 0 0 1 0"/>
<feBlend mode="normal" in2="BackgroundImageFix" result="effect1_dropShadow_692_15241"/>
<feBlend mode="normal" in="SourceGraphic" in2="effect1_dropShadow_692_15241" result="shape"/>
</filter>
</defs>
</svg>
