<svg width="15" height="15" viewBox="0 0 15 15" fill="none" xmlns="http://www.w3.org/2000/svg">
<path d="M7.66868 12.4255C8.02888 12.4255 8.32088 12.1335 8.32088 11.7733C8.32088 11.4131 8.02888 11.1211 7.66868 11.1211C7.30848 11.1211 7.01648 11.4131 7.01648 11.7733C7.01648 12.1335 7.30848 12.4255 7.66868 12.4255Z" fill="#E63535"/>
<path d="M7.66896 10.082C7.53891 10.082 7.41418 10.0304 7.32222 9.93841C7.23025 9.84645 7.17859 9.72172 7.17859 9.59166V3.70717C7.17859 3.57712 7.23025 3.45239 7.32222 3.36042C7.41418 3.26846 7.53891 3.2168 7.66896 3.2168C7.79902 3.2168 7.92375 3.26846 8.01571 3.36042C8.10767 3.45239 8.15934 3.57712 8.15934 3.70717V9.59166C8.15934 9.72172 8.10767 9.84645 8.01571 9.93841C7.92375 10.0304 7.79902 10.082 7.66896 10.082Z" fill="#E63535"/>
<circle cx="7.5" cy="7.5" r="7" stroke="#E63535"/>
</svg>
