<svg width="57" height="55" viewBox="0 0 57 55" fill="none" xmlns="http://www.w3.org/2000/svg">
<g filter="url(#filter0_d_0_1572)">
<path d="M49.2648 0H7.73479C4.01537 0 1.00019 3.20434 1.00019 7.15709V45.3282C1.00019 49.281 4.01537 52.4853 7.73479 52.4853H49.2648C52.9843 52.4853 55.9994 49.281 55.9994 45.3282V7.15709C55.9994 3.20434 52.9843 0 49.2648 0Z" fill="#FCFFFF"/>
</g>
<path d="M49.2648 0H7.73479C4.01537 0 1.00019 3.20434 1.00019 7.15709V45.3282C1.00019 49.281 4.01537 52.4853 7.73479 52.4853H49.2648C52.9843 52.4853 55.9994 49.281 55.9994 45.3282V7.15709C55.9994 3.20434 52.9843 0 49.2648 0Z" fill="#5F97F6"/>
<path d="M25.6941 31.2166L21.0135 26.2424L19.4197 27.9243L25.6941 34.5924L39.1633 20.2782L37.5807 18.5963L25.6941 31.2166Z" fill="#FCFFFF"/>
<defs>
<filter id="filter0_d_0_1572" x="0" y="0" width="57" height="54.4859" filterUnits="userSpaceOnUse" color-interpolation-filters="sRGB">
<feFlood flood-opacity="0" result="BackgroundImageFix"/>
<feColorMatrix in="SourceAlpha" type="matrix" values="0 0 0 0 0 0 0 0 0 0 0 0 0 0 0 0 0 0 127 0" result="hardAlpha"/>
<feOffset dy="1"/>
<feGaussianBlur stdDeviation="0.5"/>
<feColorMatrix type="matrix" values="0 0 0 0 0 0 0 0 0 0 0 0 0 0 0 0 0 0 0.36 0"/>
<feBlend mode="normal" in2="BackgroundImageFix" result="effect1_dropShadow_0_1572"/>
<feBlend mode="normal" in="SourceGraphic" in2="effect1_dropShadow_0_1572" result="shape"/>
</filter>
</defs>
</svg>
